<?xml version="1.0" standalone="no"?>
<!DOCTYPE svg PUBLIC "-//W3C//DTD SVG 20010904//EN"
 "http://www.w3.org/TR/2001/REC-SVG-20010904/DTD/svg10.dtd">
<svg version="1.0" xmlns="http://www.w3.org/2000/svg"
 width="512.000000pt" height="512.000000pt" viewBox="0 0 512.000000 512.000000"
 preserveAspectRatio="xMidYMid meet">
<metadata>
Created by potrace 1.14, written by Peter Selinger 2001-2017
</metadata>
<g transform="translate(0.000000,512.000000) scale(0.100000,-0.100000)"
fill="#000000" stroke="none">
<path d="M0 2560 l0 -2560 2560 0 2560 0 0 2560 0 2560 -2560 0 -2560 0 0
-2560z m1122 1600 c289 -659 317 -725 342 -822 l24 -93 11 45 c34 135 81 253
295 740 l235 535 261 3 c143 1 260 -1 259 -5 0 -5 -177 -397 -392 -873 l-392
-865 -275 0 -274 0 -393 865 c-216 476 -393 868 -393 873 0 4 116 6 257 5
l257 -3 178 -405z m2201 -152 c159 -363 255 -596 271 -657 14 -51 27 -95 29
-98 2 -2 10 23 16 56 19 99 41 151 289 718 l237 543 261 0 262 0 -159 -352
c-88 -194 -266 -588 -396 -875 l-236 -523 -272 0 -272 0 -394 866 c-217 477
-395 871 -397 875 -2 5 113 9 256 9 l259 0 246 -562z m-1167 -2591 c216 -478
394 -873 394 -878 0 -6 -105 -8 -256 -7 l-257 3 -247 565 c-156 354 -256 597
-270 650 -12 47 -24 92 -27 100 -3 8 -16 -28 -29 -81 -25 -103 -31 -119 -327
-794 l-193 -440 -257 -3 c-197 -2 -257 0 -257 10 0 7 177 403 392 880 l393
868 273 -2 273 -3 395 -868z m2135 -4 c218 -480 394 -875 391 -878 -3 -3 -117
-5 -252 -5 -186 0 -250 3 -258 13 -5 6 -118 260 -250 562 -212 483 -292 688
-292 743 0 31 -10 4 -34 -90 -17 -68 -95 -258 -266 -649 -134 -305 -247 -560
-252 -567 -8 -9 -73 -12 -265 -12 -238 0 -255 1 -250 18 3 9 170 382 372 827
202 446 378 834 391 863 l23 52 273 -2 272 -3 397 -872z"/>
</g>
</svg>
